<?xml version="1.0" encoding="UTF-8"?>
<svg width="178px" height="185px" viewBox="0 0 178 185" version="1.1" xmlns="http://www.w3.org/2000/svg" xmlns:xlink="http://www.w3.org/1999/xlink">
    <!-- Generator: Sketch 44.1 (41455) - http://www.bohemiancoding.com/sketch -->
    <title>Group 4</title>
    <desc>Created with Sketch.</desc>
    <defs>
        <radialGradient cx="50%" cy="0%" fx="50%" fy="0%" r="100%" gradientTransform="translate(0.500000,0.000000),scale(1.000000,0.966942),rotate(90.000000),translate(-0.500000,-0.000000)" id="radialGradient-1">
            <stop stop-color="#FFFFFF" offset="0%"></stop>
            <stop stop-color="#EAEAEA" offset="100%"></stop>
        </radialGradient>
        <ellipse id="path-2" cx="58.5" cy="60.5" rx="58.5" ry="60.5"></ellipse>
        <filter x="-2.1%" y="-2.1%" width="104.3%" height="104.1%" filterUnits="objectBoundingBox" id="filter-3">
            <feGaussianBlur stdDeviation="1.5" in="SourceAlpha" result="shadowBlurInner1"></feGaussianBlur>
            <feOffset dx="0" dy="1" in="shadowBlurInner1" result="shadowOffsetInner1"></feOffset>
            <feComposite in="shadowOffsetInner1" in2="SourceAlpha" operator="arithmetic" k2="-1" k3="1" result="shadowInnerInner1"></feComposite>
            <feColorMatrix values="0 0 0 0 0   0 0 0 0 0   0 0 0 0 0  0 0 0 0.5 0" type="matrix" in="shadowInnerInner1"></feColorMatrix>
        </filter>
        <radialGradient cx="50%" cy="0%" fx="50%" fy="0%" r="100%" gradientTransform="translate(0.500000,0.000000),scale(1.000000,0.966942),rotate(90.000000),translate(-0.500000,-0.000000)" id="radialGradient-4">
            <stop stop-color="#6C6C6C" offset="0%"></stop>
            <stop stop-color="#000000" offset="100%"></stop>
        </radialGradient>
        <ellipse id="path-5" cx="58.5" cy="60.5" rx="58.5" ry="60.5"></ellipse>
        <filter x="-2.1%" y="-2.1%" width="104.3%" height="104.1%" filterUnits="objectBoundingBox" id="filter-6">
            <feGaussianBlur stdDeviation="1.5" in="SourceAlpha" result="shadowBlurInner1"></feGaussianBlur>
            <feOffset dx="0" dy="1" in="shadowBlurInner1" result="shadowOffsetInner1"></feOffset>
            <feComposite in="shadowOffsetInner1" in2="SourceAlpha" operator="arithmetic" k2="-1" k3="1" result="shadowInnerInner1"></feComposite>
            <feColorMatrix values="0 0 0 0 0   0 0 0 0 0   0 0 0 0 0  0 0 0 0.5 0" type="matrix" in="shadowInnerInner1"></feColorMatrix>
        </filter>
    </defs>
    <g id="Page-1" stroke="none" stroke-width="1" fill="none" fill-rule="evenodd">
        <g id="Group-4" transform="translate(-24.000000, 1.000000)">
            <g id="Group-3">
                <g id="Group-2" transform="translate(84.000000, 0.000000)">
                    <g id="Oval-2">
                        <use fill="url(#radialGradient-1)" fill-rule="evenodd" xlink:href="#path-2"></use>
                        <use fill="black" fill-opacity="1" filter="url(#filter-3)" xlink:href="#path-2"></use>
                        <use stroke="#979797" stroke-width="1" xlink:href="#path-2"></use>
                    </g>
                    <path d="M52.7783285,69.4247764 C62.358971,69.4247764 79.091443,72.1657736 88.3892455,80.2548126 C95.0869336,77.6052133 97.9345406,66.9042865 97.9345406,65.8819186 C70.3853756,59.5692022 43.1976859,69.4247764 52.7783285,69.4247764 Z" id="Path-3" fill="#FFFFFF"></path>
                    <path d="M22,83.6932219 C47.1679688,66.5291594 64.3671875,57.7127531 98.7929687,66.3729094" id="Path-2" stroke="#979797" stroke-width="2"></path>
                    <path d="M23.3377014,85.026937 C48.5056702,67.8628745 65.7048889,59.0464682 100.13067,67.7066245" id="Path-2" stroke="#EEEEEE" stroke-width="2" transform="translate(61.734186, 74.680326) rotate(2.000000) translate(-61.734186, -74.680326) "></path>
                    <ellipse id="Oval-5" stroke="#979797" fill="#FFFFFF" cx="20" cy="53.5" rx="9" ry="6.5"></ellipse>
                    <ellipse id="Oval-6" stroke="#979797" fill="#FFFFFF" cx="69" cy="37.5" rx="13" ry="10.5"></ellipse>
                    <path d="M10,44 C21.3015094,44 30.2926483,47.1738423 30.2926483,47.1738423" id="Path-4" stroke="#7D7D7D" stroke-width="6"></path>
                    <path d="M50,40.4496431 C57.8073127,31.3566697 74.274802,21.0671408 81.7999482,20" id="Path-5" stroke="#979797" stroke-width="8"></path>
                    <path d="M10.0691479,42.5288428 C21.3706572,42.5288428 30.3617961,45.7026851 30.3617961,45.7026851" id="Path-4" stroke="#FFFFFF" stroke-width="7" transform="translate(20.215472, 44.115764) rotate(-3.000000) translate(-20.215472, -44.115764) "></path>
                    <path d="M50.1760261,40.7255786 C57.9833388,31.6326053 74.4508281,21.3430764 81.9759743,20.2759355" id="Path-5" stroke="#FFFFFF" stroke-width="6" transform="translate(66.076000, 30.500757) rotate(1.000000) translate(-66.076000, -30.500757) "></path>
                </g>
                <g id="Group" transform="translate(84.086343, 123.316174) rotate(-40.000000) translate(-84.086343, -123.316174) translate(25.586343, 62.816174)">
                    <g id="Oval-2" transform="translate(58.500000, 60.500000) scale(-1, 1) translate(-58.500000, -60.500000) ">
                        <use fill="url(#radialGradient-4)" fill-rule="evenodd" xlink:href="#path-5"></use>
                        <use fill="black" fill-opacity="1" filter="url(#filter-6)" xlink:href="#path-5"></use>
                        <use stroke="#979797" stroke-width="1" xlink:href="#path-5"></use>
                    </g>
                    <path d="M42.615018,73.1475246 C52.1956605,73.1475246 68.9281325,75.8885218 78.225935,83.9775608 C84.9236231,81.3279615 87.7712301,70.6270347 87.7712301,69.6046668 C60.2220651,63.2919504 33.0343754,73.1475246 42.615018,73.1475246 Z" id="Path-3" fill="#D8D8D8" transform="translate(64.212228, 75.735501) rotate(-334.000000) translate(-64.212228, -75.735501) "></path>
                    <path d="M18.2070312,83.6932219 C43.375,66.5291594 60.5742187,57.7127531 95,66.3729094" id="Path-2" stroke="#979797" stroke-width="2" transform="translate(56.603516, 73.346611) scale(-1, 1) translate(-56.603516, -73.346611) "></path>
                    <path d="M17.1306325,86.22741 C42.2986013,69.0633475 54.8350851,60.0071481 93.7556382,68.5630277" id="Path-2" stroke="#292929" stroke-width="3" transform="translate(55.443135, 75.760728) scale(-1, 1) rotate(2.000000) translate(-55.443135, -75.760728) "></path>
                    <ellipse id="Oval-5" stroke="#979797" fill="#D8D8D8" transform="translate(95.500000, 52.000000) scale(-1, 1) translate(-95.500000, -52.000000) " cx="95.5" cy="52" rx="7.5" ry="6"></ellipse>
                    <ellipse id="Oval-6" stroke="#979797" fill="#D8D8D8" transform="translate(50.315000, 34.256400) scale(-1, 1) rotate(-15.000000) translate(-50.315000, -34.256400) " cx="50.3150004" cy="34.2563998" rx="11.7902927" ry="10.3466109"></ellipse>
                    <path d="M87.3501394,43.2339556 C98.6516487,43.2339556 107.642788,46.4077979 107.642788,46.4077979" id="Path-4" stroke="#979797" stroke-width="6" transform="translate(97.496463, 44.820877) scale(-1, 1) translate(-97.496463, -44.820877) "></path>
                    <path d="M36.9523885,39.4274453 C44.7597012,30.3344719 61.2271905,20.044943 68.7523367,18.9778022" id="Path-5" stroke="#979797" stroke-width="5" transform="translate(52.852363, 29.202624) scale(-1, 1) rotate(1.000000) translate(-52.852363, -29.202624) "></path>
                    <path d="M36.6088838,41.3263863 C44.4161965,32.2334129 60.8836859,21.943884 68.4088321,20.8767432" id="Path-5" stroke="#242424" stroke-width="6" transform="translate(52.508858, 31.101565) scale(-1, 1) rotate(4.000000) translate(-52.508858, -31.101565) "></path>
                    <path d="M86.5149471,44.1200107 C97.8164564,44.1200107 106.807595,47.293853 106.807595,47.293853" id="Path-4" stroke="#242424" stroke-width="5" transform="translate(96.661271, 45.706932) scale(-1, 1) rotate(-3.000000) translate(-96.661271, -45.706932) "></path>
                </g>
            </g>
            <circle id="Oval" fill="#000000" cx="69.5" cy="106.5" r="2.5"></circle>
            <circle id="Oval" fill="#000000" cx="104.5" cy="91.5" r="2.5"></circle>
            <circle id="Oval" fill="#000000" cx="147.5" cy="43.5" r="2.5"></circle>
            <circle id="Oval" fill="#000000" cx="106.5" cy="55.5" r="2.5"></circle>
        </g>
    </g>
</svg>